<svg width="256" height="256" viewBox="0 0 256 256" fill="none" xmlns="http://www.w3.org/2000/svg">
<rect x="10" y="10" width="236" height="236" rx="45" fill="white"/>
<rect x="10" y="10" width="236" height="236" rx="45" stroke="#026BBC" stroke-width="20"/>
<path d="M122.523 186H96.376V138.769C96.376 125.598 91.6722 119.013 82.2646 119.013C77.7269 119.013 73.9915 120.756 71.0586 124.242C68.1257 127.729 66.6592 132.156 66.6592 137.523V186H40.4287V101H66.6592V114.447H66.9912C73.2445 104.099 82.3477 98.9248 94.3008 98.9248C113.116 98.9248 122.523 110.601 122.523 133.954V186ZM140.453 181.435V154.872C145.268 158.912 150.497 161.955 156.142 164.003C161.786 165.995 167.486 166.991 173.241 166.991C176.617 166.991 179.55 166.687 182.04 166.078C184.586 165.469 186.688 164.639 188.349 163.588C190.064 162.481 191.337 161.208 192.167 159.77C192.997 158.275 193.412 156.671 193.412 154.955C193.412 152.631 192.748 150.556 191.42 148.729C190.092 146.903 188.266 145.215 185.941 143.666C183.673 142.117 180.961 140.622 177.807 139.184C174.652 137.745 171.249 136.278 167.597 134.784C158.3 130.91 151.355 126.179 146.762 120.59C142.224 115.001 139.955 108.249 139.955 100.336C139.955 94.138 141.2 88.8255 143.69 84.3984C146.181 79.916 149.556 76.236 153.817 73.3584C158.134 70.4808 163.114 68.3779 168.759 67.0498C174.403 65.6663 180.38 64.9746 186.688 64.9746C192.886 64.9746 198.365 65.362 203.124 66.1367C207.938 66.8561 212.366 67.9906 216.405 69.54V94.3594C214.413 92.9759 212.227 91.7585 209.848 90.707C207.523 89.6556 205.116 88.7979 202.626 88.1338C200.136 87.4144 197.646 86.8887 195.155 86.5566C192.72 86.2246 190.396 86.0586 188.183 86.0586C185.139 86.0586 182.372 86.363 179.882 86.9717C177.392 87.5251 175.289 88.3275 173.573 89.3789C171.858 90.4303 170.53 91.7031 169.589 93.1973C168.648 94.6361 168.178 96.2686 168.178 98.0947C168.178 100.087 168.703 101.885 169.755 103.49C170.806 105.04 172.3 106.534 174.237 107.973C176.174 109.356 178.526 110.74 181.293 112.123C184.06 113.451 187.187 114.835 190.673 116.273C195.432 118.266 199.693 120.396 203.456 122.665C207.274 124.879 210.539 127.396 213.251 130.219C215.963 133.041 218.038 136.278 219.477 139.931C220.915 143.528 221.635 147.733 221.635 152.548C221.635 159.188 220.362 164.778 217.816 169.315C215.326 173.798 211.923 177.45 207.606 180.272C203.29 183.039 198.254 185.032 192.499 186.249C186.799 187.466 180.767 188.075 174.403 188.075C167.873 188.075 161.648 187.522 155.727 186.415C149.861 185.308 144.77 183.648 140.453 181.435Z" fill="#026BBC"/>
</svg>
