<svg width="25" height="40" viewBox="0 0 25 40" fill="none" xmlns="http://www.w3.org/2000/svg">
<path d="M9.78996 20.1009L18.0007 21.7653L12.5809 28.0001L9.78996 20.1009Z" fill="#262626"/>
<circle cx="5" cy="14" r="3" transform="rotate(180 5 14)" fill="#262626"/>
<path d="M13.9121 24C6.91127 17.1929 14.1313 7.9248 18.6326 7.9248C21.2277 7.9248 21.1287 13.1177 20.6341 14.6174C19.5268 17.9751 16.4121 18 14.4121 17.5C11.5865 16.7936 6.62416 13.1177 4.62891 13.1177" stroke="#262626" stroke-width="3"/>
<path d="M7 37.0986L4.9209 34.5L7 31.9004L9.0791 34.5L7 37.0986Z" fill="#262626" stroke="#262626" stroke-width="3"/>
<path d="M19 37.5986L16.9209 35L19 32.4004L21.0791 35L19 37.5986Z" fill="#262626" stroke="#262626" stroke-width="3"/>
</svg>
