<svg width="38" height="73" viewBox="0 0 38 73" fill="none" xmlns="http://www.w3.org/2000/svg">
<path d="M15.5981 53.5036C40.0989 42.0036 33.0989 71.0036 17.0981 71.0036C15.7544 71.0036 11.099 70.8036 7.099 68.0036C2.099 64.5036 1.15224 58.1331 1.59807 55.0024C2.59489 48.0024 7.84589 46.0519 10.5992 45.4094C22.5985 42.6094 20.5981 43.1005 23.5981 42.4082C26.5981 41.7159 27.5975 41.0024 29.0975 39.0024C31.6608 35.5848 30.3317 31.3174 25.5975 29.0036C21.5 27.001 15.5981 27.0024 11.5976 25.5036C6.96242 23.7671 2.09755 20.0025 4.09755 10.5036C6.07912 1.09229 14.5976 1.50363 16.0976 1.50363C17.5976 1.50363 26.5975 3.00363 28.0975 9.00363C29.2975 13.8036 25.5975 17.0036 22.5975 17.0036C20.7642 17.0036 16.8976 16.5036 16.0976 14.5036C15.0976 12.0036 16.0975 9.50363 17.5975 9.50363" stroke="#262626" stroke-width="3"/>
<path d="M14.5 41.9023L16.5791 44.501L14.5 47.1006L12.4209 44.501L14.5 41.9023Z" fill="#262626" stroke="#262626" stroke-width="3"/>
<path d="M22.5 40.9023L24.5791 43.501L22.5 46.1006L20.4209 43.501L22.5 40.9023Z" fill="#262626" stroke="#262626" stroke-width="3"/>
<rect x="12.5" y="50.501" width="4" height="17" fill="#262626"/>
<ellipse cx="19" cy="11.001" rx="4.5" ry="3.5" fill="#262626"/>
</svg>
