<svg width="42" height="78" viewBox="0 0 42 78" fill="none" xmlns="http://www.w3.org/2000/svg">
<line x1="17.5" y1="63" x2="17.5" y2="17" stroke="#262626" stroke-width="3"/>
<line x1="24.5" y1="63" x2="24.5" y2="17" stroke="#262626" stroke-width="3"/>
<path d="M21 8.40137L23.0791 11L21 13.5996L18.9209 11L21 8.40137Z" fill="#262626" stroke="#262626" stroke-width="3"/>
<path d="M32 47.4014L34.0791 50L32 52.5996L29.9209 50L32 47.4014Z" fill="#262626" stroke="#262626" stroke-width="3"/>
<path d="M32 27.4014L34.0791 30L32 32.5996L29.9209 30L32 27.4014Z" fill="#262626" stroke="#262626" stroke-width="3"/>
<path d="M10 47.4014L12.0791 50L10 52.5996L7.9209 50L10 47.4014Z" fill="#262626" stroke="#262626" stroke-width="3"/>
<path d="M10 27.4014L12.0791 30L10 32.5996L7.9209 30L10 27.4014Z" fill="#262626" stroke="#262626" stroke-width="3"/>
<path d="M21 66.4014L23.0791 69L21 71.5996L18.9209 69L21 66.4014Z" fill="#262626" stroke="#262626" stroke-width="3"/>
</svg>
