<svg width="12" height="21" viewBox="0 0 12 21" fill="none" xmlns="http://www.w3.org/2000/svg">
<path d="M4.73569 12.0322L2.65569 10.1762L6.46369 4.80024C6.76235 4.39491 7.02902 4.01091 7.26369 3.64824C7.51969 3.28557 7.75435 2.95491 7.96769 2.65624C5.36502 2.72024 3.66902 3.06157 2.87969 3.68024H2.27169L0.0636875 0.576241L0.319688 0.000240326H9.37569L11.5517 2.84824L7.93569 8.16024C9.15169 8.73624 10.0797 9.61091 10.7197 10.7842C11.381 11.9362 11.7117 13.3016 11.7117 14.8802C11.7117 16.4376 11.285 17.7282 10.4317 18.7522C9.59969 19.7549 8.49035 20.2562 7.10369 20.2562C5.50369 20.2562 4.11702 19.7122 2.94369 18.6242C1.77035 17.5149 0.789021 15.9256 -0.000312477 13.8562L1.27969 13.3442C2.02635 14.9016 2.71969 15.9362 3.35969 16.4482C4.02102 16.9389 4.69302 17.1842 5.37569 17.1842C6.48502 17.1842 7.33835 16.7576 7.93569 15.9042C8.55435 15.0509 8.86369 13.9842 8.86369 12.7042C8.86369 11.7869 8.72502 11.1149 8.44769 10.6882C8.19169 10.2616 7.87169 10.0482 7.48769 10.0482C7.10369 10.0482 6.76235 10.2082 6.46369 10.5282C6.16502 10.8482 5.75969 11.3496 5.24769 12.0322H4.73569Z" fill="#262626"/>
</svg>
