<svg width="12" height="21" viewBox="0 0 12 21" fill="none" xmlns="http://www.w3.org/2000/svg">
<path d="M2.91211 20.4481L0.160109 19.2321C0.0961094 18.8694 0.0534428 18.5174 0.0321094 18.1761C0.0107761 17.8348 0.000109434 17.5041 0.000109434 17.1841C0.000109434 15.9254 0.224109 14.8374 0.672109 13.9201C1.14144 12.9814 1.85611 12.1281 2.81611 11.3601L5.02411 9.6001C5.68544 9.06677 6.19744 8.56543 6.56011 8.0961C6.94411 7.60543 7.21078 7.06143 7.36011 6.4641C7.50944 5.86677 7.58411 5.13077 7.58411 4.2561C7.58411 3.38143 7.22144 2.9441 6.49611 2.9441C5.38678 2.9441 4.54411 3.27477 3.96811 3.9361C3.41344 4.5761 3.13611 5.6961 3.13611 7.2961L2.65611 7.4881L0.0321094 6.0481C0.0321094 4.02143 0.512109 2.50677 1.47211 1.5041C2.43211 0.501434 3.61611 0.000101089 5.02411 0.000101089C5.55744 0.000101089 6.13344 0.192101 6.75211 0.576101C7.39211 0.938767 7.98944 1.41877 8.54411 2.0161C9.12011 2.5921 9.58944 3.2001 9.95211 3.8401C10.3148 4.45877 10.4961 5.0241 10.4961 5.5361C10.4961 6.38943 10.4321 7.17877 10.3041 7.9041C10.1761 8.6081 9.89878 9.2801 9.47211 9.9201C9.06678 10.5601 8.44811 11.2108 7.61611 11.8721L5.34411 13.6961C4.98144 13.9734 4.64011 14.2721 4.32011 14.5921C4.00011 14.9121 3.74411 15.2534 3.55211 15.6161C4.00011 16.2561 4.49078 16.6828 5.02411 16.8961C5.57878 17.1094 6.14411 17.2161 6.72011 17.2161C7.40278 17.2161 7.98944 17.0561 8.48011 16.7361C8.97078 16.3948 9.35478 16.0321 9.63211 15.6481H10.1441L11.8721 18.8801C11.5308 19.3708 11.0614 19.7654 10.4641 20.0641C9.88811 20.3628 9.20544 20.5121 8.41611 20.5121C6.28278 20.5121 4.53344 19.4668 3.16811 17.3761C3.12544 17.5041 3.10411 17.7494 3.10411 18.1121C3.10411 18.3894 3.11478 18.6881 3.13611 19.0081C3.17878 19.3281 3.24278 19.6694 3.32811 20.0321L2.91211 20.4481Z" fill="#262626"/>
</svg>
