<svg width="29" height="35" viewBox="0 0 29 35" fill="none" xmlns="http://www.w3.org/2000/svg">
<path d="M6.09578 17.3758C6.09578 19.7438 6.62378 21.8238 7.67978 23.6158C8.76778 25.4078 10.1758 26.7998 11.9038 27.7918C13.6638 28.7518 15.5678 29.2318 17.6158 29.2318C19.2158 29.2318 20.6558 29.0238 21.9358 28.6078C23.2158 28.1918 24.3678 27.6318 25.3918 26.9278C26.4478 26.1918 27.3598 25.3758 28.1278 24.4798V31.1998C26.7198 32.3518 25.1998 33.2318 23.5678 33.8398C21.9358 34.4478 19.8878 34.7518 17.4238 34.7518C14.9598 34.7518 12.6558 34.3358 10.5118 33.5038C8.39978 32.6718 6.55978 31.4718 4.99178 29.9038C3.42378 28.3358 2.19178 26.4958 1.29578 24.3838C0.431781 22.2398 -0.00021863 19.9038 -0.00021863 17.3758C-0.00021863 14.8478 0.431781 12.5278 1.29578 10.4158C2.19178 8.27178 3.42378 6.41578 4.99178 4.84778C6.55978 3.27978 8.39978 2.07978 10.5118 1.24778C12.6558 0.41578 14.9598 -0.000219345 17.4238 -0.000219345C19.8878 -0.000219345 21.9358 0.303781 23.5678 0.91178C25.1998 1.51978 26.7198 2.39978 28.1278 3.55178V10.2718C27.3598 9.37578 26.4478 8.57578 25.3918 7.87178C24.3678 7.13578 23.2158 6.55978 21.9358 6.14378C20.6558 5.72778 19.2158 5.51978 17.6158 5.51978C15.5678 5.51978 13.6638 6.01578 11.9038 7.00778C10.1758 7.96778 8.76778 9.34378 7.67978 11.1358C6.62378 12.8958 6.09578 14.9758 6.09578 17.3758Z" fill="#262626"/>
</svg>
