<svg width="30" height="95" viewBox="0 0 30 95" fill="none" xmlns="http://www.w3.org/2000/svg">
<path d="M6.32625 45.2C6.32625 47.568 6.85425 49.648 7.91025 51.44C8.99825 53.232 10.4063 54.624 12.1343 55.616C13.8943 56.576 15.7983 57.056 17.8463 57.056C19.4463 57.056 20.8863 56.848 22.1663 56.432C23.4463 56.016 24.5983 55.456 25.6223 54.752C26.6783 54.016 27.5903 53.2 28.3583 52.304V59.024C26.9503 60.176 25.4303 61.056 23.7983 61.664C22.1663 62.272 20.1183 62.576 17.6543 62.576C15.1903 62.576 12.8863 62.16 10.7422 61.328C8.63025 60.496 6.79025 59.296 5.22225 57.728C3.65425 56.16 2.42225 54.32 1.52625 52.208C0.66225 50.064 0.23025 47.728 0.23025 45.2C0.23025 42.672 0.66225 40.352 1.52625 38.24C2.42225 36.096 3.65425 34.24 5.22225 32.672C6.79025 31.104 8.63025 29.904 10.7422 29.072C12.8863 28.24 15.1903 27.824 17.6543 27.824C20.1183 27.824 22.1663 28.128 23.7983 28.736C25.4303 29.344 26.9503 30.224 28.3583 31.376V38.096C27.5903 37.2 26.6783 36.4 25.6223 35.696C24.5983 34.96 23.4463 34.384 22.1663 33.968C20.8863 33.552 19.4463 33.344 17.8463 33.344C15.7983 33.344 13.8943 33.84 12.1343 34.832C10.4063 35.792 8.99825 37.168 7.91025 38.96C6.85425 40.72 6.32625 42.8 6.32625 45.2Z" fill="#262626"/>
<line x1="16.5" y1="15" x2="16.5" y2="95" stroke="#262626" stroke-width="3"/>
<path d="M10.9274 14.2647L15.6302 16.3089L14.0029 21.1725L9.29876 19.1279L10.9274 14.2647Z" fill="#262626" stroke="#262626" stroke-width="3"/>
</svg>
